<?xml version="1.0" encoding="UTF-8"?>
<svg version="1.1" xmlns="http://www.w3.org/2000/svg" width="128" height="128">
<path d="M0 0 C42.24 0 84.48 0 128 0 C128 42.24 128 84.48 128 128 C85.76 128 43.52 128 0 128 C0 85.76 0 43.52 0 0 Z " fill="#000000" transform="translate(0,0)"/>
<path d="M0 0 C15.87346025 -1.36058231 15.87346025 -1.36058231 20.47265625 1.58203125 C22.28259086 3.95676815 23.62193892 6.35101932 25 9 C26.46295631 11.1983742 27.94247587 13.38580684 29.4375 15.5625 C30.62848735 17.37271038 31.81724765 19.18439834 33 21 C35.94793366 19.69248704 37.80665048 18.38472387 39.875 15.91796875 C40.64070313 15.01401367 40.64070313 15.01401367 41.421875 14.09179688 C41.94265625 13.46337891 42.4634375 12.83496094 43 12.1875 C43.52078125 11.57068359 44.0415625 10.95386719 44.578125 10.31835938 C46.85469859 7.61349101 49.0652576 4.91197266 51.171875 2.0703125 C53 0 53 0 56.25 -0.3125 C57.1575 -0.209375 58.065 -0.10625 59 0 C55.60028197 4.82317721 51.92232178 9.27088233 47.9375 13.625 C47.08414063 14.55828125 46.23078125 15.4915625 45.3515625 16.453125 C43.98430681 17.93394014 42.60837921 19.407012 41.2109375 20.859375 C39.64725932 22.48290934 39.64725932 22.48290934 38 25 C38.23731204 29.61176399 40.6166242 32.63543879 43.3125 36.1875 C44.21486218 37.41213439 45.11446368 38.63880636 46.01171875 39.8671875 C46.4917334 40.52428711 46.97174805 41.18138672 47.46630859 41.85839844 C50.27617169 45.78200861 52.94965789 49.79648533 55.625 53.8125 C56.15778564 54.60744873 56.69057129 55.40239746 57.23950195 56.22143555 C57.73023193 56.95918213 58.22096191 57.69692871 58.7265625 58.45703125 C59.16564941 59.11678955 59.60473633 59.77654785 60.05712891 60.45629883 C61 62 61 62 61 63 C44.94741604 65.22494747 44.94741604 65.22494747 40.19921875 61.640625 C37.14480385 58.13633503 35.06187939 54.13972441 33.04394531 49.97607422 C31.93412075 47.87529778 30.65449835 46.0375548 29.2421875 44.12890625 C27 41 27 41 27 39 C23.60550558 42.35221424 20.327901 45.7770294 17.125 49.3125 C16.25746094 50.26382813 15.38992187 51.21515625 14.49609375 52.1953125 C11.77293326 55.25513916 9.18612943 58.40648179 6.66796875 61.63671875 C4.40767721 63.48412331 2.83615974 63.25520622 0 63 C2.62886306 58.87582034 5.38689118 55.32731957 8.75 51.75 C12.1267516 48.0722007 15.47473241 44.38507233 18.6875 40.5625 C19.35136719 39.78003906 20.01523437 38.99757812 20.69921875 38.19140625 C22.22766028 36.1410564 22.22766028 36.1410564 21.71582031 34.07324219 C20.50329698 30.56139083 18.19878795 27.6917339 16.0625 24.6875 C15.06681007 23.26364856 14.07204136 21.83915254 13.078125 20.4140625 C12.56958984 19.68735352 12.06105469 18.96064453 11.53710938 18.21191406 C9.08883748 14.68882903 6.69575075 11.12977509 4.3125 7.5625 C3.87881104 6.91821045 3.44512207 6.2739209 2.99829102 5.61010742 C0 1.11908926 0 1.11908926 0 0 Z " fill="#F0F0F0" transform="translate(34,33)"/>
<path d="M0 0 C3.09256039 -0.41081983 5.91791542 -0.54614306 9 0 C11.32549571 2.32874815 12.59045005 3.97819852 14.1875 6.75 C15.11763334 8.22662217 16.0500342 9.70181778 16.984375 11.17578125 C17.71237305 12.35454834 17.71237305 12.35454834 18.45507812 13.55712891 C21.13130448 17.78884839 24.04533342 21.85178488 26.9375 25.9375 C28.11627854 27.62081853 29.2946643 29.30441217 30.47265625 30.98828125 C32.81888675 34.33047327 35.18174963 37.659984 37.55859375 40.98046875 C38.11748291 41.76365479 38.67637207 42.54684082 39.25219727 43.35375977 C40.3124231 44.83762933 41.37655261 46.31871956 42.44506836 47.79663086 C46 52.77719689 46 52.77719689 46 55 C43.00238761 55.36189124 40.90775065 55.58971646 38 55 C35.56679694 53.05141507 34.1199757 50.57474507 32.5 47.9375 C31.47221732 46.37703531 30.44352111 44.81717206 29.4140625 43.2578125 C28.86911133 42.41250977 28.32416016 41.56720703 27.76269531 40.69628906 C24.5782017 35.82516061 21.21214854 31.07968719 17.875 26.3125 C16.51794514 24.35827012 15.16116834 22.40384712 13.8046875 20.44921875 C10.16932775 15.22690911 6.48557291 10.04085427 2.74169922 4.89575195 C0 1.10448664 0 1.10448664 0 0 Z " fill="#080808" transform="translate(41,37)"/>
</svg>
